<?xml version="1.0" encoding="iso-8859-1"?>
<!-- Uploaded to: SVG Repo, www.svgrepo.com, Generator: SVG Repo Mixer Tools -->
<!DOCTYPE svg PUBLIC "-//W3C//DTD SVG 1.1//EN" "http://www.w3.org/Graphics/SVG/1.1/DTD/svg11.dtd">
<svg fill="#000000" version="1.1" id="Capa_1" xmlns="http://www.w3.org/2000/svg" xmlns:xlink="http://www.w3.org/1999/xlink" 
	 viewBox="0 0 256.379 256.379" xml:space="preserve">
<g>
	<path d="M0,60.588c0,40.271,28.002,75.111,66.426,84.387v68.368c-23.685,23.038-47.397,20.453-48.351,20.341l-2.759,19.809
		c0.325,0.046,2.282,0.297,5.481,0.297c11.287-0.001,38.015-3.131,62.9-29.486l2.729-2.89v-93.459l-8.658-1.172
		C44.835,122.323,20,93.866,20,60.588V22.843h141.33v37.745c0,33.278-24.834,61.735-57.768,66.194l-8.658,1.172v93.135l2.353,2.793
		c24.946,29.602,65.745,29.717,67.44,29.704l-0.085-20c-0.317,0-30.63-0.242-49.708-19.986v-68.625
		c38.424-9.275,66.426-44.115,66.426-84.387V2.843H0V60.588z"/>
	<rect x="198" y="2.59" width="20" height="92.693"/>
	<path d="M236.379,3.221v86.193c0,15.437-12.559,27.995-27.996,27.995h-9.969L198,252.56l20,0.061l0.355-116.253
		c21.696-4.602,38.023-23.906,38.023-46.953V3.221H236.379z"/>
</g>
</svg>